<?xml version="1.0" encoding="utf-8"?>
<!-- Generator: Adobe Illustrator 18.0.0, SVG Export Plug-In . SVG Version: 6.00 Build 0)  -->
<!DOCTYPE svg PUBLIC "-//W3C//DTD SVG 1.1//EN" "http://www.w3.org/Graphics/SVG/1.1/DTD/svg11.dtd">
<svg version="1.1" id="Layer_1" xmlns="http://www.w3.org/2000/svg" xmlns:xlink="http://www.w3.org/1999/xlink" x="0px" y="0px"
	 viewBox="0 0 480 480" enable-background="new 0 0 480 480" xml:space="preserve">
<path fill="#566067" d="M240,32c-48.6,0-88,39.4-88,88s39.4,88,88,88s88-39.4,88-88C327.9,71.4,288.6,32.1,240,32z M240,192
	c-39.8,0-72-32.2-72-72s32.2-72,72-72s72,32.2,72,72C312,159.7,279.7,192,240,192z"/>
<path fill="#566067" d="M240,64c-30.9,0-56,25.1-56,56s25.1,56,56,56s56-25.1,56-56C296,89.1,270.9,64,240,64z M240,160
	c-22.1,0-40-17.9-40-40s17.9-40,40-40s40,17.9,40,40C280,142.1,262.1,160,240,160z"/>
<path fill="#566067" d="M104,32H88c-13.3,0-24,10.7-24,24v64c0,13.3,10.7,24,24,24h16c13.3,0,24-10.7,24-24V56
	C128,42.7,117.3,32,104,32z M112,120c0,4.4-3.6,8-8,8H88c-4.4,0-8-3.6-8-8V56c0-4.4,3.6-8,8-8h16c4.4,0,8,3.6,8,8V120z"/>
<path fill="#566067" d="M456,248h-8V40c0-22.1-17.9-40-40-40H72C49.9,0,32,17.9,32,40v208h-8c-13.3,0-24,10.7-24,24v128
	c0,13.3,10.7,24,24,24h40v48c0,4.4,3.6,8,8,8h336c4.4,0,8-3.6,8-8v-48h40c13.3,0,24-10.7,24-24V272C480,258.7,469.3,248,456,248z
	 M48,40c0-13.3,10.7-24,24-24h336c13.3,0,24,10.7,24,24v208H48V40z M64,344H48v-24h16V344z M400,464H80V320h16v96c0,4.4,3.6,8,8,8
	h272c4.4,0,8-3.6,8-8v-96h16V464z M112,408v-88h256v88H112z M464,400c0,4.4-3.6,8-8,8h-40v-48h24c4.4,0,8-3.6,8-8v-40
	c0-4.4-3.6-8-8-8H40c-4.4,0-8,3.6-8,8v40c0,4.4,3.6,8,8,8h24v48H24c-4.4,0-8-3.6-8-8V272c0-4.4,3.6-8,8-8h432c4.4,0,8,3.6,8,8V400z
	 M416,344v-24h16v24H416z"/>
<path fill="#566067" d="M96,168c-17.7,0-32,14.3-32,32s14.3,32,32,32s32-14.3,32-32S113.7,168,96,168z M96,216c-8.8,0-16-7.2-16-16
	s7.2-16,16-16s16,7.2,16,16S104.8,216,96,216z"/>
<path fill="#566067" d="M400,32h-32c-8.8,0-16,7.2-16,16v32c0,8.8,7.2,16,16,16h32c8.8,0,16-7.2,16-16V48C416,39.2,408.8,32,400,32z
	 M400,80h-32V48h32V80z"/>
<path fill="#566067" d="M360,112h48v16h-48V112z"/>
<path fill="#566067" d="M332,184c-6.6,0-12,5.4-12,12s5.4,12,12,12s12-5.4,12-12S338.6,184,332,184z"/>
</svg>
