<?xml version="1.0" encoding="utf-8"?>
<!-- Generator: Adobe Illustrator 18.0.0, SVG Export Plug-In . SVG Version: 6.00 Build 0)  -->
<!DOCTYPE svg PUBLIC "-//W3C//DTD SVG 1.1//EN" "http://www.w3.org/Graphics/SVG/1.1/DTD/svg11.dtd">
<svg version="1.1" id="Capa_1" xmlns="http://www.w3.org/2000/svg" xmlns:xlink="http://www.w3.org/1999/xlink" x="0px" y="0px"
	 viewBox="0 0 274.2 274.2" enable-background="new 0 0 274.2 274.2" xml:space="preserve">
<path fill="#555F66" d="M262.4,170.6c-0.8-2.3-19.6-56.2-45.5-69.9c-1.6-0.8-3.2-1.7-4.8-2.5c7.8-26.1,10.3-48,5.2-67
	c-5-18.5-22.1-32.2-38.9-31.2c-14.8,0.9-25.3,12.7-28.1,31.7c-0.9,6-0.8,11.4-0.2,16.4c-3.5,4.8-5.8,9-6.5,10.3L13.1,266.1
	c-1,1.6-2.2,3.5-1,5.9l1.2,2.2h2.5c2.2,0,3.4-1.5,4.5-2.9l150-188.2c9.6,8.1,21,14.2,31.4,19.5c-4.6,14.3-10.8,30-18,47.3
	c-20,47.5-10.7,86.7,3.4,95.6c0.7,0.5,1.5,0.7,2.3,0.7c1.4,0,2.8-0.7,3.6-2c1.2-2,0.7-4.6-1.3-5.9c-9.9-6.3-18.7-41.1-0.1-85.2
	c7.1-17,13.2-32.5,17.9-46.8c1.2,0.6,2.3,1.2,3.5,1.8c23,12.1,41.3,64.6,41.4,65.1c0.8,2.2,3.2,3.4,5.4,2.6
	C261.9,175.2,263.1,172.8,262.4,170.6z M154,80.1l-8.4,6.9l3.3-10.3c1-3,2.8-8.4,5.2-14.1c1.9,4.1,4.3,7.8,7,11.2
	C158,76.7,155.3,79,154,80.1z M167.3,67.8c-3.7-4.7-6.4-10.1-8-16.2c4.1-7.3,9-13.2,14.2-13.2c1.4,0,2.8,0.4,4.1,1.2
	c2.1,1.3,3.3,3.4,3.5,5.9C181.6,51.6,174.5,60.5,167.3,67.8z M204.3,94.3c-9.8-5-20.2-10.7-28.6-17.9c5.6-7.3,16.7-23.2,15.2-34.9
	c-0.5-4.1-2.5-7.5-5.8-9.8c-2.7-1.9-5.7-2.9-8.8-2.9c-6.6,0-12.9,4.3-18.2,9.7c0.1-1.8,0.2-3.6,0.5-5.6c2.2-14.9,9.6-23.9,20.2-24.5
	c0.4,0,0.8,0,1.2,0c11.1,0,24.7,9.1,29,25C213.6,50.4,211.3,70.4,204.3,94.3z"/>
</svg>
