<?xml version="1.0" encoding="utf-8"?>
<!-- Generator: Adobe Illustrator 18.0.0, SVG Export Plug-In . SVG Version: 6.00 Build 0)  -->
<!DOCTYPE svg PUBLIC "-//W3C//DTD SVG 1.1//EN" "http://www.w3.org/Graphics/SVG/1.1/DTD/svg11.dtd">
<svg version="1.1" id="Layer_1" xmlns="http://www.w3.org/2000/svg" xmlns:xlink="http://www.w3.org/1999/xlink" x="0px" y="0px"
	 viewBox="0 0 59.5 43" enable-background="new 0 0 59.5 43" xml:space="preserve">
<path fill="#FFFFFF" stroke="#566067" stroke-width="2" stroke-miterlimit="10" d="M3.6,1H56c1.4,0,2.6,1.2,2.6,2.6v35.8
	c0,1.4-1.2,2.6-2.6,2.6H3.6C2.2,42,1,40.9,1,39.5V3.6C1,2.2,2.2,1,3.6,1z"/>
<path fill="#FFFFFF" stroke="#566067" stroke-width="3" stroke-miterlimit="10" d="M23.1,25.9c-0.6,0.1-1.2-0.3-1.4-0.8
	c-0.6,0.6-1.3,0.8-2.1,0.8c-0.6,0-1.2-0.1-1.6-0.5c-0.4-0.4-0.6-0.9-0.6-1.4c-0.1-0.8,0.4-1.5,1.2-1.7c0.4-0.1,0.8-0.2,1.2-0.3
	c0.4-0.1,0.8-0.2,1.2-0.3c0.2-0.1,0.3-0.4,0.3-0.6s-0.1-0.4-0.3-0.5c-0.2-0.1-0.4-0.2-0.6-0.2c-0.3,0-0.4,0.1-0.4,0.3v0.3
	c0,0.3-0.1,0.4-0.3,0.6c-0.2,0.2-0.4,0.3-0.8,0.3s-0.6-0.1-0.8-0.3c-0.2-0.2-0.3-0.4-0.3-0.8c0-0.4,0.3-0.9,0.7-1.1
	c0.6-0.3,1.3-0.4,2-0.4c0.7-0.1,1.4,0.1,2.1,0.4c0.5,0.4,0.8,1,0.7,1.7v2.6c0,0.3,0.1,0.4,0.2,0.4h0.3c0.2,0,0.4,0.1,0.5,0.2
	c0.1,0.1,0.2,0.3,0.2,0.5c0,0.3-0.1,0.5-0.4,0.7C23.8,25.8,23.4,25.9,23.1,25.9z M21.2,23.2v-0.3c-0.4,0.1-0.7,0.3-1.1,0.3
	c-0.3,0-0.6,0.3-0.7,0.5c0,0.3,0.2,0.6,0.5,0.6H20c0.6,0.1,1.1-0.3,1.2-0.9C21.3,23.4,21.3,23.2,21.2,23.2z"/>
<path fill="#FFFFFF" stroke="#566067" stroke-width="3" stroke-miterlimit="10" d="M27.4,17.6V20c0.4-0.5,1.2-0.8,1.8-0.8
	c0.7,0,1.4,0.3,1.8,0.9c0.5,0.7,0.7,1.5,0.7,2.4c0.1,0.9-0.2,1.9-0.8,2.6c-0.5,0.6-1.3,1-2.1,1c-0.8,0-1.6-0.4-2.1-1v0.3
	c0,0.3-0.3,0.6-0.5,0.6h-0.1c-0.3,0.1-0.7-0.2-0.7-0.5v-6c0-0.4-0.1-0.6-0.2-0.6c-0.1,0-0.1,0-0.2,0.1h-0.2c-0.3,0-0.6-0.3-0.6-0.5
	v-0.1c0-0.3,0.1-0.4,0.2-0.6c0.1-0.1,0.3-0.3,0.6-0.3c0.2,0,0.3,0,0.5,0.1c0.1,0,0.3,0.1,0.5,0.1s0.4,0,0.6-0.1
	c0.1,0,0.3-0.1,0.4-0.1c0.2-0.1,0.4,0.1,0.4,0.3C27.4,17.5,27.4,17.5,27.4,17.6z M28.6,24.3c0.7,0,1.1-0.6,1.1-1.8s-0.4-1.8-1.1-1.8
	c-0.3,0-0.7,0.2-0.8,0.5c-0.3,0.4-0.4,0.8-0.3,1.3C27.4,23.7,27.8,24.3,28.6,24.3z"/>
<path fill="#FFFFFF" stroke="#566067" stroke-width="3" stroke-miterlimit="10" d="M36.2,21.3c0-0.1,0.1-0.3,0.1-0.4
	c-0.2-0.1-0.4-0.2-0.6-0.2c-0.4,0-0.7,0.2-0.9,0.4c-0.3,0.4-0.4,0.8-0.3,1.2c0,0.4,0.1,0.9,0.4,1.3c0.3,0.3,0.6,0.5,1,0.5
	s0.8-0.3,0.9-0.6c0.1-0.2,0.2-0.4,0.3-0.5c0.2-0.1,0.4-0.2,0.6-0.1c0.3,0,0.5,0.1,0.7,0.3c0.2,0.2,0.3,0.4,0.3,0.6
	c0,0.6-0.3,1.2-0.8,1.5c-0.6,0.4-1.3,0.6-2,0.6C34.9,26,34,25.7,33.4,25c-0.6-0.6-1-1.5-0.9-2.4c-0.1-1.7,1.2-3.3,2.9-3.4h0.4
	c0.6,0,1.3,0.1,1.9,0.5c0.4,0.3,0.7,0.8,0.7,1.3c0,0.3-0.1,0.6-0.3,0.8c-0.3,0.2-0.5,0.3-0.8,0.3c-0.3,0-0.5-0.1-0.7-0.2
	C36.3,21.8,36.2,21.5,36.2,21.3z"/>
<path fill="#FFFFFF" d="M23.1,25.9c-0.6,0.1-1.2-0.3-1.4-0.8c-0.6,0.6-1.3,0.8-2.1,0.8c-0.6,0-1.2-0.1-1.6-0.5
	c-0.4-0.4-0.6-0.9-0.6-1.4c-0.1-0.8,0.4-1.5,1.2-1.7c0.4-0.1,0.8-0.2,1.2-0.3c0.4-0.1,0.8-0.2,1.2-0.3c0.2-0.1,0.3-0.4,0.3-0.6
	s-0.1-0.4-0.3-0.5c-0.2-0.1-0.4-0.2-0.6-0.2c-0.3,0-0.4,0.1-0.4,0.3v0.3c0,0.3-0.1,0.4-0.3,0.6c-0.2,0.2-0.4,0.3-0.8,0.3
	s-0.6-0.1-0.8-0.3c-0.2-0.2-0.3-0.4-0.3-0.8c0-0.4,0.3-0.9,0.7-1.1c0.6-0.3,1.3-0.4,2-0.4c0.7-0.1,1.4,0.1,2.1,0.4
	c0.5,0.4,0.8,1,0.7,1.7v2.6c0,0.3,0.1,0.4,0.2,0.4h0.3c0.2,0,0.4,0.1,0.5,0.2c0.1,0.1,0.2,0.3,0.2,0.5c0,0.3-0.1,0.5-0.4,0.7
	C23.8,25.8,23.4,25.9,23.1,25.9z M21.2,23.2v-0.3c-0.4,0.1-0.7,0.3-1.1,0.3c-0.3,0-0.6,0.3-0.7,0.5c0,0.3,0.2,0.6,0.5,0.6H20
	c0.6,0.1,1.1-0.3,1.2-0.9C21.3,23.4,21.3,23.2,21.2,23.2z"/>
<path fill="#FFFFFF" d="M27.4,17.6V20c0.4-0.5,1.2-0.8,1.8-0.8c0.7,0,1.4,0.3,1.8,0.9c0.5,0.7,0.7,1.5,0.7,2.4
	c0.1,0.9-0.2,1.9-0.8,2.6c-0.5,0.6-1.3,1-2.1,1c-0.8,0-1.6-0.4-2.1-1v0.3c0,0.3-0.3,0.6-0.5,0.6h-0.1c-0.3,0.1-0.7-0.2-0.7-0.5v-6
	c0-0.4-0.1-0.6-0.2-0.6c-0.1,0-0.1,0-0.2,0.1h-0.2c-0.3,0-0.6-0.3-0.6-0.5v-0.1c0-0.3,0.1-0.4,0.2-0.6c0.1-0.1,0.3-0.3,0.6-0.3
	c0.2,0,0.3,0,0.5,0.1c0.1,0,0.3,0.1,0.5,0.1s0.4,0,0.6-0.1c0.1,0,0.3-0.1,0.4-0.1c0.2-0.1,0.4,0.1,0.4,0.3
	C27.4,17.5,27.4,17.5,27.4,17.6z M28.6,24.3c0.7,0,1.1-0.6,1.1-1.8s-0.4-1.8-1.1-1.8c-0.3,0-0.7,0.2-0.8,0.5
	c-0.3,0.4-0.4,0.8-0.3,1.3C27.4,23.7,27.8,24.3,28.6,24.3z"/>
<path fill="#FFFFFF" d="M36.2,21.3c0-0.1,0.1-0.3,0.1-0.4c-0.2-0.1-0.4-0.2-0.6-0.2c-0.4,0-0.7,0.2-0.9,0.4
	c-0.3,0.4-0.4,0.8-0.3,1.2c0,0.4,0.1,0.9,0.4,1.3c0.3,0.3,0.6,0.5,1,0.5s0.8-0.3,0.9-0.6c0.1-0.2,0.2-0.4,0.3-0.5
	c0.2-0.1,0.4-0.2,0.6-0.1c0.3,0,0.5,0.1,0.7,0.3c0.2,0.2,0.3,0.4,0.3,0.6c0,0.6-0.3,1.2-0.8,1.5c-0.6,0.4-1.3,0.6-2,0.6
	C34.9,26,34,25.7,33.4,25c-0.6-0.6-1-1.5-0.9-2.4c-0.1-1.7,1.2-3.3,2.9-3.4h0.4c0.6,0,1.3,0.1,1.9,0.5c0.4,0.3,0.7,0.8,0.7,1.3
	c0,0.3-0.1,0.6-0.3,0.8c-0.3,0.2-0.5,0.3-0.8,0.3c-0.3,0-0.5-0.1-0.7-0.2C36.3,21.8,36.2,21.5,36.2,21.3z"/>
<path fill="none" stroke="#99489B" stroke-width="2" stroke-miterlimit="10" d="M42,13V30"/>
</svg>
