<?xml version="1.0" encoding="utf-8"?>
<!-- Generator: Adobe Illustrator 18.0.0, SVG Export Plug-In . SVG Version: 6.00 Build 0)  -->
<!DOCTYPE svg PUBLIC "-//W3C//DTD SVG 1.1//EN" "http://www.w3.org/Graphics/SVG/1.1/DTD/svg11.dtd">
<svg version="1.1" id="Layer_1" xmlns="http://www.w3.org/2000/svg" xmlns:xlink="http://www.w3.org/1999/xlink" x="0px" y="0px"
	 viewBox="0 0 63.5 45.6" enable-background="new 0 0 63.5 45.6" xml:space="preserve">
<path fill="#F6F6F6" d="M50.5,11.9C47.1,4.6,39.8,0,31.8,0S16.5,4.6,13,11.9C5,12.7-0.8,19.9,0.1,28C0.8,35.4,7.1,41,14.6,41l17,0.1
	H32l17-0.1c8.1,0,14.6-6.6,14.6-14.6C63.5,18.9,57.9,12.6,50.5,11.9z"/>
<path fill="#F6F6F6" d="M14.4,13.9C18.2,4.4,28.9-0.3,38.4,3.4s14.2,14.4,10.5,23.9c-2.8,7.1-9.6,11.8-17.2,11.7l-17-0.1
	C7.6,39.1,2,33.4,1.9,26.5C1.9,19.6,7.5,13.9,14.4,13.9z"/>
<path fill="#F6F6F6" d="M49.1,13.9C45.4,4.4,34.6-0.3,25.2,3.4S11,17.8,14.7,27.3c2.8,7.1,9.6,11.8,17.2,11.7l17-0.1
	c6.9,0.1,12.6-5.6,12.6-12.5C61.6,19.6,56,13.9,49.1,13.9z"/>
<path fill="#FFFFFF" d="M49,15.6h-0.7L48,15C45.4,8.3,38.9,3.9,31.8,3.9h-1.2c-6.7,0-12.9,4.4-15.3,11.1L15,15.6h-0.6
	C8.5,15.8,3.7,20.9,3.7,27.1c0,6.3,4.8,11.5,10.8,11.5l16,0.1h1.4l17-0.1c6.3-0.4,11.2-5.8,10.9-12.2C59.5,20.7,54.8,16,49,15.6
	L49,15.6z"/>
<path fill="none" stroke="#566067" stroke-width="2" stroke-miterlimit="10" d="M49.1,13.9C46.3,6.7,39.4,2.1,31.8,2.1
	S17.2,6.7,14.4,13.9C7.5,13.9,1.9,19.6,1.9,26.5C2,33.4,7.6,39,14.6,39l17,0.1H32l17-0.1c6.9,0.1,12.6-5.6,12.6-12.5
	C61.6,19.6,56,13.9,49.1,13.9z"/>
<path fill="#F6F6F6" d="M48.2,20.5c0.9,0,1.7,0.4,2.2,1.1l7.2,9.2c0.8,1.1,0.6,2.7-0.4,3.5c-0.4,0.3-1,0.5-1.5,0.5h-0.3l-0.1,7.9
	c0,1.6-1.3,2.9-2.9,2.8l-8.6-0.1c-1.6,0-2.9-1.3-2.8-2.9l0.1-7.9h-0.3c-1.4,0-2.5-1.2-2.5-2.5c0-0.6,0.2-1.1,0.5-1.5l7.2-9.2
	C46.5,20.9,47.3,20.5,48.2,20.5z"/>
<path fill="#F6F6F6" d="M49.1,22.7l7.2,9.2c0.3,0.3,0.2,0.8-0.1,1c-0.1,0.1-0.3,0.1-0.4,0.1h-2.1l-0.1,9.7c0,0.6-0.5,1.1-1.1,1.1
	l-8.6-0.1c-0.6,0-1.1-0.5-1.1-1.1V33h-2.1c-0.4,0-0.7-0.3-0.7-0.7c0-0.1,0.1-0.3,0.1-0.4l7.2-9.2c0.4-0.4,1-0.6,1.5-0.2
	C48.9,22.6,49,22.6,49.1,22.7z"/>
<path fill="#FFFFFF" d="M40.2,31.9l6.8-8.6c0.3-0.3,0.7-0.4,1-0.1l0.1,0.1l7.3,9.5h-2.9v10.3c0,0.4-0.3,0.7-0.7,0.7l-7.7-0.1
	c-0.7,0-1.2-0.6-1.2-1.2V33h-2.1c-0.4,0-0.7-0.3-0.8-0.7C40,32.2,40,32.1,40.2,31.9z"/>
<path fill="none" stroke="#99489B" stroke-width="2" stroke-miterlimit="10" d="M49.1,22.7l7.2,9.2c0.3,0.3,0.2,0.8-0.1,1
	c-0.1,0.1-0.3,0.1-0.4,0.1h-2.1l-0.1,9.7c0,0.6-0.5,1.1-1.1,1.1l-8.6-0.1c-0.6,0-1.1-0.5-1.1-1.1V33h-2.1c-0.4,0-0.7-0.3-0.7-0.7
	c0-0.1,0.1-0.3,0.1-0.4l7.2-9.2c0.4-0.4,1-0.6,1.5-0.2C48.9,22.6,49,22.6,49.1,22.7z"/>
</svg>
